<?xml version="1.0" encoding="UTF-8"?>
<svg width="256px" height="256px" viewBox="0 0 256 256" version="1.1" xmlns="http://www.w3.org/2000/svg">
    <g fill="#61DAFB">
        <path d="M128,0 C57.3075981,0 0,57.307374 0,128 C0,198.69285 57.3075981,256 128,256 C198.69285,256 256,198.69285 256,128 C256,57.307374 198.69285,0 128,0 Z M128,33.9091272 L179.536931,107.636931 L76.4630687,107.636931 L128,33.9091272 Z M33.9091272,128 L107.636931,76.4630687 L107.636931,179.536931 L33.9091272,128 Z M128,222.090873 L76.4630687,148.363069 L179.536931,148.363069 L128,222.090873 Z M222.090873,128 L148.363069,179.536931 L148.363069,76.4630687 L222.090873,128 Z" fill="#61DAFB"></path>
    </g>
</svg>